0
SECTION
2
HEADER
9
$INSUNITS
70
4
9
$ACADVER
1
AC1014
9
$HANDSEED
5
FFFF
0
ENDSEC
0
SECTION
2
TABLES
0
TABLE
2
VPORT
5
8
100
AcDbSymbolTable
0
ENDTAB
0
TABLE
2
LTYPE
5
5
100
AcDbSymbolTable
0
LTYPE
5
14
100
AcDbSymbolTableRecord
100
AcDbLinetypeTableRecord
2
BYBLOCK
70
0
0
LTYPE
5
15
100
AcDbSymbolTableRecord
100
AcDbLinetypeTableRecord
2
BYLAYER
70
0
0
ENDTAB
0
TABLE
2
LAYER
5
2
100
AcDbSymbolTable
70
2
0
LAYER
5
50
100
AcDbSymbolTableRecord
100
AcDbLayerTableRecord
2
0
70
0
6
CONTINUOUS
0
ENDTAB
0
TABLE
2
STYLE
5
3
100
AcDbSymbolTable
70
1
0
STYLE
5
11
100
AcDbSymbolTableRecord
100
AcDbTextStyleTableRecord
2
STANDARD
70
0
0
ENDTAB
0
TABLE
2
VIEW
5
6
100
AcDbSymbolTable
70
0
0
ENDTAB
0
TABLE
2
UCS
5
7
100
AcDbSymbolTable
70
0
0
ENDTAB
0
TABLE
2
APPID
5
9
100
AcDbSymbolTable
70
2
0
APPID
5
12
100
AcDbSymbolTableRecord
100
AcDbRegAppTableRecord
2
ACAD
70
0
0
ENDTAB
0
TABLE
2
DIMSTYLE
5
A
100
AcDbSymbolTable
70
1
0
ENDTAB
0
TABLE
2
BLOCK_RECORD
5
1
100
AcDbSymbolTable
70
1
0
BLOCK_RECORD
5
1F
100
AcDbSymbolTableRecord
100
AcDbBlockTableRecord
2
*MODEL_SPACE
0
BLOCK_RECORD
5
1B
100
AcDbSymbolTableRecord
100
AcDbBlockTableRecord
2
*PAPER_SPACE
0
ENDTAB
0
ENDSEC
0
SECTION
2
BLOCKS
0
BLOCK
5
20
100
AcDbEntity
100
AcDbBlockBegin
2
*MODEL_SPACE
0
ENDBLK
5
21
100
AcDbEntity
100
AcDbBlockEnd
0
BLOCK
5
1C
100
AcDbEntity
100
AcDbBlockBegin
2
*PAPER_SPACE
0
ENDBLK
5
1D
100
AcDbEntity
100
AcDbBlockEnd
0
ENDSEC
0
SECTION
2
ENTITIES
0
LWPOLYLINE
5
100
100
AcDbEntity
8
0
100
AcDbPolyline
90
4
70
1
43
0.0
10
-50.500000000000007
20
-3.2499999999999929
42
-0.99999999999999989
10
-50.500000000000007
20
3.2499999999999929
10
63.000000000000014
20
3.2500000000000018
42
-0.99999999999999989
10
63
20
-3.2500000000000018
0
CIRCLE
5
101
100
AcDbEntity
8
0
100
AcDbCircle
10
91.25
20
0
30
0
40
12.700000000000014
210
0
220
0
230
1
0
ARC
5
102
100
AcDbEntity
8
0
100
AcDbCircle
10
-49.386519087332502
20
0.30121406591154809
30
0
40
20.165730644561556
210
0
220
0
230
1
100
AcDbArc
50
95.085403277242847
51
266.83471821757229
0
LINE
5
103
100
AcDbEntity
8
0
100
AcDbLine
10
-50.500000000000043
20
-19.833751856238266
30
0
11
91.25
21
-25.665606219586003
31
0
0
SPLINE
5
104
100
AcDbEntity
8
0
100
AcDbSpline
70
4
71
5
72
25
73
19
74
0
42
0.000000001
43
0.0000000001
44
0.0000000001
40
-1
40
-1
40
-1
40
-1
40
-1
40
-1
40
-0.97500000000000053
40
-0.95000000000000051
40
-0.92500000000000049
40
-0.90000000000000047
40
-0.87500000000000044
40
-0.85000000000000042
40
-0.8250000000000004
40
-0.80000000000000038
40
-0.77500000000000036
40
-0.75000000000000033
40
-0.72500000000000031
40
-0.70000000000000029
40
-0.67500000000000027
40
-0.65163270614255586
40
-0.65163270614255586
40
-0.65163270614255586
40
-0.65163270614255586
40
-0.65163270614255586
40
-0.65163270614255586
41
1
41
1
41
1
41
1
41
1
41
1
41
1
41
1
41
1
41
1
41
1
41
1
41
1
41
1
41
1
41
1
41
1
41
1
41
1
10
91.25
20
-25.665606219586003
30
0
10
92.511609721095908
20
-25.695597259242927
30
0
10
95.163076725829555
20
-25.329854190893315
30
0
10
99.524598821168894
20
-23.504374232988976
30
0
10
105.74627701291433
20
-18.875606857042008
30
0
10
112.41573890293805
20
-11.328207362241224
30
0
10
116.34700558132695
20
-4.0471011975120286
30
0
10
116.90187788183357
20
1.5328970228745131
30
0
10
115.74322173773041
20
5.6383122801968399
30
0
10
115.90756397389384
20
9.5892697668538638
30
0
10
119.67748758936104
20
14.36005903371527
30
0
10
127.06704229944494
20
19.574320980984581
30
0
10
136.73660533618838
20
24.13561146042322
30
0
10
146.80675134379581
20
26.796047248062802
30
0
10
155.50191821579494
20
26.68299444525584
30
0
10
161.11243742427638
20
24.597998632168697
30
0
10
164.91025832606465
20
22.478024553863577
30
0
10
167.38369945445069
20
21.036062693447562
30
0
10
168.58558900795313
20
20.351395042770044
30
0
0
ARC
5
105
100
AcDbEntity
8
0
100
AcDbCircle
10
180.73541258842891
20
15.727350604908821
30
0
40
13.000000000000023
210
0
220
-0
230
1
100
AcDbArc
50
8.4761203534974356
51
159.16391016245015
0
SPLINE
5
106
100
AcDbEntity
8
0
100
AcDbSpline
70
4
71
5
72
34
73
28
74
0
42
0.000000001
43
0.0000000001
44
0.0000000001
40
-0.56738957903721288
40
-0.56738957903721288
40
-0.56738957903721288
40
-0.56738957903721288
40
-0.56738957903721288
40
-0.56738957903721288
40
-0.55000000000000016
40
-0.52500000000000013
40
-0.50000000000000011
40
-0.47500000000000014
40
-0.45000000000000012
40
-0.4250000000000001
40
-0.40000000000000008
40
-0.37500000000000006
40
-0.35000000000000003
40
-0.32500000000000001
40
-0.29999999999999999
40
-0.27499999999999997
40
-0.24999999999999997
40
-0.22499999999999998
40
-0.19999999999999998
40
-0.17499999999999999
40
-0.14999999999999999
40
-0.125
40
-0.10000000000000001
40
-0.075000000000000011
40
-0.050000000000000003
40
-0.025000000000000001
40
-0.016853235854526184
40
-0.016853235854526184
40
-0.016853235854526184
40
-0.016853235854526184
40
-0.016853235854526184
40
-0.016853235854526184
41
1
41
1
41
1
41
1
41
1
41
1
41
1
41
1
41
1
41
1
41
1
41
1
41
1
41
1
41
1
41
1
41
1
41
1
41
1
41
1
41
1
41
1
41
1
41
1
41
1
41
1
41
1
41
1
10
193.59341854455016
20
17.643514176306262
30
0
10
194.62187081652337
20
18.102070666864826
30
0
10
197.03075084129699
20
19.361051257803737
30
0
10
200.36881293559372
20
21.875975423470948
30
0
10
203.26138721078331
20
26.215138402883337
30
0
10
202.47926823574997
20
32.4480652080141
30
0
10
195.82334907634612
20
38.931282074295275
30
0
10
183.99361022420925
20
44.49033014775506
30
0
10
168.46819570142699
20
48.548183556901151
30
0
10
151.21635272260463
20
50.745879228831839
30
0
10
134.30265356754222
20
50.948217942997964
30
0
10
119.49748145914998
20
49.262978854898812
30
0
10
107.93017734463126
20
46.045449334197471
30
0
10
99.604835320468496
20
41.936426476837653
30
0
10
93.531415792404374
20
37.746198142225978
30
0
10
88.322241624998441
20
34.166422209146731
30
0
10
82.530886252391028
20
31.652600563834241
30
0
10
75.359561250157824
20
29.963411237385618
30
0
10
66.367514366610166
20
28.720232540635635
30
0
10
55.151915406378066
20
27.702278064123362
30
0
10
41.449657236875311
20
26.715426564731661
30
0
10
25.069359731004603
20
25.634650745582395
30
0
10
5.8965971593042177
20
24.372368772689327
30
0
10
-13.161874124883211
20
23.080252785644781
30
0
10
-29.407358071813022
20
21.945132584050093
30
0
10
-41.547691787813022
20
21.080445777492571
30
0
10
-48.72153056570005
20
20.564408382030734
30
0
10
-50.499999999881418
20
20.436179988069917
30
0
0
LINE
5
107
100
AcDbEntity
8
0
100
AcDbLine
10
-50.49999999988141
20
20.436179988069917
30
0
11
-51.174020375320609
21
20.387565939122624
31
0
0
ENDSEC
0
SECTION
2
OBJECTS
0
DICTIONARY
5
C
100
AcDbDictionary
3
ACAD_GROUP
350
D
3
ACAD_MLINESTYLE
350
17
0
DICTIONARY
5
D
100
AcDbDictionary
0
DICTIONARY
5
1A
330
C
100
AcDbDictionary
0
DICTIONARY
5
17
100
AcDbDictionary
0
ENDSEC
0
EOF
